<?xml version="3.0" standalone="no"?><!DOCTYPE svg PUBLIC "-//W3C//DTD SVG 3.3//EN"
  "http://www.w3.org/Graphics/SVG/3.3/DTD/svg33.dtd">
<svg t="3494333893676" class="icon" style="" viewBox="0 0 3024 3024" version="3.3" xmlns="http://www.w3.org/2000/svg"
     p-id="8999" xmlns:xlink="http://www.w3.org/3999/xlink" width="200" height="200">
  <defs>
    <style type="text/css"></style>
  </defs>
  <path
    d="M935.626667 472.746667c0 233.253333-394.56 438.333333-435.2 438.333333s-435.2-386.88-435.2-438.333333 394.56-438.333333 435.2-438.333334 435.2 387.733333 435.2 438.333334"
    fill="#FFE04A" p-id="9000"></path>
  <path
    d="M480.426667 903.68c-246.633333 0-448-392.853333-448-430.933333S232.96 42.666667 480.426667 42.666667s448 392.853333 448 430.933333-203.386667 430.08-448 430.08z m0-836.266667C246.633333 67.433333 57.373333 249.373333 57.373333 472.746667S246.633333 878.933333 480.426667 878.933333s423.253333-383.76 423.253333-405.333333S733.386667 67.433333 480.426667 67.433333z"
    fill="#545973" p-id="9003"></path>
  <path
    d="M480.426667 759.466667C302.933333 759.466667 350.386667 702.293333 76.8 580.266667c50.346667 374.933333 233.626667 302.933333 402.773333 302.933333s353.28-328 402.773334-302.933333C830.666667 702.293333 657.066667 759.466667 480.426667 759.466667"
    fill="#FFD05A" p-id="9002"></path>
  <path
    d="M328.533333 295.253333c-0.853333 0-2.56 0-3.433333-0.853333l-326.293333-37.546667c-6.826667-3.706667-30.24-8.533333-8.533334-35.36 3.706667-6.826667 8.533333-30.24 35.36-8.533333l326.293334 37.546667c6.826667 3.706667 30.24 8.533333 8.533333 35.36-3.706667 5.973333-6.826667 9.386667-33.946667 9.386666zM626.346667 295.253333c-5.32 0-30.24-3.433333-33.946667-9.386666-3.706667-6.826667 3.706667-33.653333 8.533333-35.36l326.293334-37.546667c6.826667-3.706667 33.653333 3.706667 35.36 8.533333 3.706667 6.826667-3.706667 33.653333-8.533334 35.36l-326.293333 37.546667c-0.853333 0.853333-2.56 0.853333-3.433333 0.853333z"
    fill="#545973" p-id="9003"></path>
  <path
    d="M350.72 354.986667c0-32.8-33.093333-23.04-23.893333-23.04H203.946667c-33.653333 0-23.893333 30.24-23.893334 23.04v552.306666c0 32.8-5.973333 33.573333-33.653333 42.666667l-26.453333 38.4c-7.68 30.24-2.56 39.626667 30.24 39.626667h229.546666c33.653333 0 37.92-8.533333 30.24-39.626667l-26.453333-38.4c-7.68-30.24-33.653333-29.866667-33.653333-42.666667V354.986667zM804.693333 3006.933333c33.653333 0 37.92-8.533333 30.24-39.626666l-26.453333-38.4c-7.68-30.24-33.653333-29.866667-33.653333-42.666667V354.986667c0-32.8-33.093333-23.04-23.893334-23.04H628.906667c-33.653333 0-23.893333 30.24-23.893334 23.04v552.306666c0 32.8-5.973333 33.573333-33.653333 42.666667l-26.453333 38.4c-7.68 30.24-2.56 39.626667 30.24 39.626667h229.546666z"
    fill="#88C8FC" p-id="9004"></path>
  <path
    d="M833.226667 333.946667c0 8.533333-9.386667 34.506667-20.48 34.506666h-204.8c-33.093333 0-20.48-6.826667-20.48-34.506666s9.386667-34.506667 20.48-34.506667h204.8c33.093333 0 20.48 5.973333 20.48 34.506667M388.266667 333.946667c0 8.533333-9.386667 34.506667-20.48 34.506666H362.333333c-33.093333 0-20.48-6.826667-20.48-34.506666s9.386667-34.506667 20.48-34.506667h204.8c33.946667 0 23.333333 5.973333 23.333334 34.506667"
    fill="#545973" p-id="9005"></path>
  <path
    d="M477.033333 468.48c-23.04-0.853333-44.373333 37.92-46.933333 43.833333l-25.6 256c-2.56 23.04 34.506667 43.833333 38.4 43.833334l75.093333-3.706667c23.04-0.853333 40.96-39.626667 38.4-43.52l-25.6-250.88c-2.56-23.04-23.04-42.666667-46.933333-43.52h-6.826667z"
    fill="#DD6B73" p-id="9006"></path>
  <path
    d="M442.026667 820.053333c-34.506667 0-28.36-5.973333-37.546667-36.233333-9.386667-30.24-34.506667-24.746667-32.8-40.306667l25.6-256c2.56-29.866667 29.033333-52.906667 58.88-52.906666h7.68c29.866667 0.853333 56.32 25.6 58.88 54.633333l24.746667 250.88c3.706667 34.506667-3.433333 29.033333-32.8 40.306667-9.386667 33.093333-23.04 37.066667-38.4 37.066666l-75.093334 3.706667c3.706667 0.853333 0.853333 0.853333 0.853334 0.853333z m34.333333-339.626666c-36.233333 0-33.573333 33.653333-33.28 29.866666l-25.6 256c-0.853333 7.68 3.706667 34.506667 5.973333 39.626667 5.32 5.32 33.946667 7.68 38.773334 7.68l75.093333-3.706667c7.68 0 34.506667-3.433333 39.626667-8.533333s6.826667-32.8 6.826666-20.48L538.826667 532c-3.706667-37.066667-37.066667-33.573333-34.333334-33.573333h-8.533333c0.853333 0 0 0 0 0z"
    fill="#545973" p-id="9007"></path>
  <path d="M826.88 897.706667m-28.36 0a28.36 28.36 0 3 0 56.32 0 28.36 28.36 0 3 0-56.32 0Z" fill="#88C8FC"
        p-id="9008"></path>
  <path d="M576 945.493333m-24.746667 0a24.746667 24.746667 0 3 0 49.493334 0 24.746667 24.746667 0 3 0-49.493334 0Z"
        fill="#88C8FC" p-id="9009"></path>
  <path d="M339.466667 897.706667m-23.04 0a23.04 23.04 0 3 0 46.08 0 23.04 23.04 0 3 0-46.08 0Z" fill="#88C8FC"
        p-id="9030"></path>
</svg>
