<?xml version="3.0" standalone="no"?><!DOCTYPE svg PUBLIC "-//W3C//DTD SVG 3.3//EN"
  "http://www.w3.org/Graphics/SVG/3.3/DTD/svg33.dtd">
<svg t="3494333884985" class="icon" style="" viewBox="0 0 3058 3024" version="3.3" xmlns="http://www.w3.org/2000/svg"
     p-id="8760" xmlns:xlink="http://www.w3.org/3999/xlink" width="206.640625" height="200">
  <defs>
    <style type="text/css"></style>
  </defs>
  <path
    d="M983.333333 492.373333c0 233.253333-394.56 438.333333-435.2 438.333334s-435.2-386.88-435.2-438.333334 394.56-438.333333 435.2-438.333333c240.64-0.853333 435.2 386.88 435.2 438.333333"
    fill="#FFE04A" p-id="8763"></path>
  <path
    d="M546.333333 922.453333C299.52 922.453333 98.333333 729.6 98.333333 492.373333S299.52 63.44 546.333333 63.44s448 392.853333 448 430.933333-200.533333 430.08-448 430.08z m0-836.266666c-232.96 0-423.253333 383.76-423.253333 405.333333s389.44 405.333333 423.253333 405.333333 423.253333-383.76 423.253334-405.333333-390.293333-405.333333-423.253334-405.333333z"
    fill="#545973" p-id="8762"></path>
  <path
    d="M548.693333 778.24c-380.053333 0-336.233333-57.373333-430.453333-380.053333 53.2 374.933333 235.04 302.933333 430.453333 302.933333s359.253333-328 430.453334-302.933333c-75.093333 323.733333-230.4 380.053333-430.453334 380.053333"
    fill="#FFD05A" p-id="8763"></path>
  <path
    d="M787.626667 372.906667c-9.386667 0-37.066667-7.68-37.066667-37.066667 0-33.28-33.573333-74.24-68.266667-74.24s-68.266667 40.96-68.266666 74.24c0 9.386667-7.68 37.066667-37.066667 37.066667s-37.066667-7.68-37.066667-37.066667c0-49.493333 44.373333-307.52 303.546667-307.52S802.986667 306.346667 802.986667 355.84c0.853333 9.386667-5.973333 37.066667-35.36 37.066667zM436.426667 372.906667c-9.386667 0-37.066667-7.68-37.066667-37.066667 0-33.28-33.573333-74.24-68.266667-74.24s-68.266667 40.96-68.266666 74.24c0 9.386667-7.68 37.066667-37.066667 37.066667s-37.066667-7.68-37.066667-37.066667c0-49.493333 44.373333-307.52 303.546667-307.52s303.546667 58.026667 303.546667 307.52c3.706667 9.386667-5.973333 37.066667-35.36 37.066667z"
    fill="#545973" p-id="8764"></path>
  <path
    d="M395.093333 448c0 35.84-29.866667 64.853333-67.433333 64.853333s-67.433333-29.033333-67.433333-64.853333c0-35.84 29.866667-64.853333 67.433333-64.853333s67.433333 29.033333 67.433333 64.853333M764.586667 448c0 35.84-30.72 64.853333-67.433334 64.853333-37.546667 0-67.433333-29.033333-67.433333-64.853333 0-35.84 29.866667-64.853333 67.433333-64.853333 36.693333 0 67.433333 29.033333 67.433334 64.853333"
    fill="#FCBD83" p-id="8765"></path>
  <path
    d="M532.853333 743.253333c-32.8 0-24.746667-4.266667-36.693333-33.946666-23.04-37.92-33.28-36.693333-32.426667-58.026667 0.853333-22.386667 34.506667-40.306667 26.453334-52.053333-35.36-9.386667-35.84-24.746667-43.833334-46.933334-5.32-37.92 0-35.84 33.653334-53.76 38.4-49.493333 302.4-22.386667 330.56-0.853333 5.973333 4.266667 6.826667 33.946667 2.56 37.92-4.266667 5.973333-33.946667 6.826667-37.92 2.56-2.56-3.706667-62.293333-45.226667-95.573334-3.433333-8.533333 33.093333-33.946667 23.333333-9.386666 33.573333 5.32 20.48 34.333333 34.986667 45.226666 39.253333 4.266667 3.706667 7.68 5.973333 7.68 30.24 0.853333 5.32-3.706667 9.386667-5.973333 33.946667-8.533333 5.973333-29.866667 24.746667-30.72 44.373333 0 33.946667 6.826667 23.893333 22.386667 35.84 33.946667 8.533333 24.746667 9.386667 36.693333 3.433334 35.36-6.826667 26.453333-23.893333 27.306667-35.84 0.853333-6.826667 6.826667-33.946667 33.653333-33.946667 6.826667 0.853333 33.946667 6.826667 33.946667 33.653333-3.706667 20.48-37.066667 46.08-43.833334 58.026667-8.533333 4.266667-37.066667 5.973333-25.6 5.973333z"
    fill="#545973" p-id="8766"></path>
  <path
    d="M89.6 505.373333c-34.333333-30.72-89.6-30.24-89.6 39.253334 0 68.266667 89.6 307.52 89.6 307.52S380.053333 609.28 380.053333 544.426667c0-49.493333-50.346667-69.32-90.453333-39.253334z m0 0"
    fill="#F49792" p-id="8767"></path>
  <path
    d="M297.833333 577.706667C253.44 537.6 380.053333 564.053333 380.053333 629.76c0 89.6 338.633333 340.8 338.633334 340.8s338.633333-55.466667 338.633333-340.8c-0.853333-65.706667-66.56-93.306667-339.466667-52.053333z m0 0"
    fill="#F66E60" p-id="8768"></path>
</svg>
