<?xml version="3.0" standalone="no"?><!DOCTYPE svg PUBLIC "-//W3C//DTD SVG 3.3//EN"
  "http://www.w3.org/Graphics/SVG/3.3/DTD/svg33.dtd">
<svg t="3494333890342" class="icon" style="" viewBox="0 0 3024 3024" version="3.3" xmlns="http://www.w3.org/2000/svg"
     p-id="8880" xmlns:xlink="http://www.w3.org/3999/xlink" width="200" height="200">
  <defs>
    <style type="text/css"></style>
  </defs>
  <path
    d="M355.306667 363.28c-3.706667 0-4.266667-0.853333-5.973334-3.706667-5.973333-3.433333-8.533333-33.093333-5.32-37.066666 23.04-44.373333 79.36-62.293333 325.44-40.306667 5.973333 3.433333 8.533333 30.24 5.973334 37.066667-3.433333 5.973333-30.24 8.533333-37.066667 5.973333-34.333333-36.233333-75.093333-3.433333-92.36 29.033333-3.706667 4.266667-6.826667 6.826667-33.093333 6.826667zM833.706667 306.666667c-4.266667 0-8.533333-2.56-33.093334-6.826667-37.066667-32.426667-58.026667-45.226667-92.36-29.033333-5.973333 3.433333-33.653333 0-37.066666-5.973334s0-33.653333 5.973333-37.066666c46.08-22.386667 302.4-4.266667 325.44 40.306666 3.433333 5.973333 0.853333 33.653333-5.32 37.066667-3.706667 0.853333-3.433333 3.706667-5.973333 3.706667z"
    fill="#545973" p-id="8883"></path>
  <path
    d="M959.346667 532c0 233.253333-394.56 438.333333-435.2 438.333333s-435.2-386.88-435.2-438.333333 394.56-438.333333 435.2-438.333333c239.786667 0 435.2 386.88 435.2 438.333333"
    fill="#FFE04A" p-id="8882"></path>
  <path
    d="M523.093333 942.933333C276.48 942.933333 75.093333 749.226667 75.093333 532S275.626667 83.066667 523.093333 83.066667c246.633333 0 448 392.853333 448 430.933333 0 237.226667-200.533333 430.933333-448 430.933333z m0-836.266666C290.333333 306.666667 300.693333 288.426667 300.693333 532s389.44 405.333333 423.253334 405.333333c232.96 0 423.253333-383.76 423.253333-405.333333-0.853333-223.573333-390.293333-405.333333-424.306667-405.333333z"
    fill="#545973" p-id="8883"></path>
  <path
    d="M538.826667 798.72c-380.053333 0-335.36-57.373333-409.6-380.053333C360.426667 793.6 324.266667 923.6 538.826667 923.6s358.4-328 409.6-302.933333c-74.24 322.88-229.546667 380.053333-409.6 380.053333"
    fill="#FFD05A" p-id="8884"></path>
  <path
    d="M562.346667 753.493333c-20.48 0-32.426667-3.433333-34.333334-4.266666-8.533333-3.433333-33.653333-32.8-30.24-23.333334 3.433333-8.533333 32.8-33.653333 23.333334-30.24 0 0 38.4 33.093333 332.64-36.233333s304.306667-78.506667 305.833333-83.066667c4.266667-7.68 32.8-33.093333 23.333333-7.68s32.8 32.8 9.386667 23.333334c0 0.853333-33.28 65.706667-324.586667 98.986666-45.226667 36.233333-78.506667 20.48-303.546666 20.48zM436.906667 352.426667s-33.946667 364.693333-377.493334 380.906666C93.033333 549.546667 302.4 352.426667 302.4 352.426667s-5.973333-69.32 357.033333-79.36c362.986667-30.24 377.493333 79.36 377.493334 79.36M857.6 352.426667s-33.946667 364.693333-377.493333 380.906666c-365.546667 36.233333-357.033333-380.906667-357.033334-380.906666s-5.973333-69.32 357.033334-79.36c362.986667-30.24 377.493333 79.36 377.493333 79.36"
    fill="#545973" p-id="8885"></path>
  <path
    d="M475.306667 374.633333c-58.88 0-82.773333-37.066667-85.333334-39.626666-5.32-4.266667-6.826667-33.946667-2.56-37.92 4.266667-5.32 33.946667-6.826667 37.92-2.56 0 0 23.04 36.233333 83.066667 34.506666 58.026667-3.706667 90.453333-30.72 92.36-33.573333 4.266667-4.266667 33.946667-5.32 37.066667-0.853333 5.32 4.266667 5.973333 33.946667 3.706666 37.92 0 0-39.253333 37.546667-309.226666 40.306666h-32.8z"
    fill="#545973" p-id="8886"></path>
  <path
    d="M345.92 397.653333c-7.68-0.853333-32.8-6.826667-32.8-33.653333 0-3.706667 2.56-43.52 26.453333-67.433333 23.893333-23.893333 54.633333-23.04 55.466667-23.04 6.826667 0 32.8 5.973333 33.946667 32.8 0 6.826667-5.973333 33.946667-32.8 33.946666-0.853333 0-23.333333 0-37.546667 36.233334-33.653333 33.653333-38.773333 40.96-39.626667 53.2 0.853333 6.826667-4.266667 33.946667-33.093333 33.946666zM568.32 389.973333c-0.853333 0-2.56 0-3.433333-0.853333-6.826667-3.706667-30.24-8.533333-8.533334-35.36 0.853333-3.706667 33.946667-42.666667 40.306667-60.586667 28.36-37.92 58.026667-33.946667 58.88-33.093333 6.826667 3.706667 33.093333 8.533333 9.386667 35.36-3.706667 6.826667-8.533333 33.093333-35.36 9.386667 0 0-20.48-4.266667-40.306667 8.533333-37.066667 33.093333-27.306667 36.693333-29.866667 46.08-0.853333 5.32-5.973333 8.533333-33.093333 8.533333z"
    fill="#FFFFFF" p-id="8887"></path>
</svg>
