<?xml version="3.0" standalone="no"?><!DOCTYPE svg PUBLIC "-//W3C//DTD SVG 3.3//EN"
  "http://www.w3.org/Graphics/SVG/3.3/DTD/svg33.dtd">
<svg t="3494333938586" class="icon" style="" viewBox="0 0 3024 3024" version="3.3" xmlns="http://www.w3.org/2000/svg"
     p-id="9264" xmlns:xlink="http://www.w3.org/3999/xlink" width="200" height="200">
  <defs>
    <style type="text/css"></style>
  </defs>
  <path
    d="M957.44 532c0 233.253333-394.56 438.333333-435.2 438.333333s-435.2-386.88-435.2-438.333333 394.56-438.333333 435.2-438.333333 435.2 386.88 435.2 438.333333"
    fill="#FFE04A" p-id="9265"></path>
  <path
    d="M522.24 942.933333C275.626667 942.933333 74.24 749.226667 74.24 532S275.626667 83.066667 522.24 83.066667s448 392.853333 448 430.933333-203.386667 430.933333-448 430.933333z m0-836.266666c-232.96 0-423.253333 383.76-423.253333 405.333333s389.44 405.333333 423.253333 405.333333 423.253333-383.76 423.253333-405.333333-390.293333-405.333333-423.253333-405.333333z"
    fill="#545973" p-id="9266"></path>
  <path
    d="M539.68 798.72c-377.493333 0-333.093333-57.373333-404.48-380.053333C365.546667 793.6 327.68 923.6 539.68 923.6s354.333333-328 404.48-302.933333c-74.24 322.88-226.986667 380.053333-404.48 380.053333"
    fill="#FFD05A" p-id="9267"></path>
  <path
    d="M799.573333 603.6c0 46.933333-40.306667 85.333333-88.746666 85.333333-49.493333 0-88.746667-38.4-88.746667-85.333333s40.306667-85.333333 88.746667-85.333333 88.746667 37.546667 88.746666 85.333333"
    fill="#FCBD83" p-id="9268"></path>
  <path
    d="M405.333333 603.6c0 46.933333-40.306667 85.333333-88.746666 85.333333-49.493333 0-88.746667-38.4-88.746667-85.333333s40.306667-85.333333 88.746667-85.333333c49.493333 0 88.746667 37.546667 88.746666 85.333333"
    fill="#FCBD83" p-id="9269"></path>
  <path
    d="M506.026667 773.973333H503.466667c-44.373333-3.706667-64-39.253333-64.853334-40.96-3.433333-5.973333-0.853333-33.653333 5.32-37.066666 5.973333-3.433333 33.653333-0.853333 37.066667 5.32 0.853333 0.853333 33.653333 25.6 43.52 27.306666 29.033333 3.706667 46.08-28.36 46.08-28.36 3.433333-5.973333 33.093333-8.533333 37.066667-5.32s8.533333 33.093333 5.32 37.066667c-0.853333 2.56-23.893333 43.833333-66.56 43.833333zM333.466667 539.68c-87.893333 0-326.293333-48.64-328-50.346667-6.826667-9.386667-5.32-22.386667 3.433333-29.033333 9.386667-6.826667 22.386667-5.32 29.033333 3.433333 3.706667 3.706667 30.72 35.84 99.84 34.333334 70.826667-3.706667 99.84-32.426667 300.693334-34.333334 7.68-8.533333 20.48-9.386667 29.033333-3.706666 8.533333 7.68 9.386667 20.48 2.56 29.033333-3.706667 3.706667-40.96 46.08-333.433333 48.64h-5.32z"
    fill="#545973" p-id="9270"></path>
  <path
    d="M380.053333 570.026667H379.2c-6.826667 0-33.946667-5.973333-33.946667-33.653334 0-6.826667 5.973333-33.946667 32.8-33.946666 0.853333 0 35.36-0.853333 29.866667-22.386667 36.233333-23.893333 33.653333-42.666667 33.653333-43.52-0.853333-6.826667 4.266667-32.8 30.24-34.506667 6.826667-0.853333 32.8 3.433333 34.506667 30.24 0 0.853333 4.266667 28.36-37.92 63.44-39.626667 32.426667-44.373333 34.333333-50.346667 34.333334zM286.72 587.946667h-0.853333c-6.826667-0.853333-33.946667-6.826667-33.946667-33.653334 0.853333-6.826667 5.973333-33.093333 33.946667-33.946666 0.853333 0 6.826667-2.56 34.506666-37.92 30.24-22.386667 9.386667-40.306667 9.386667-40.306667-0.853333-6.826667 4.266667-32.8 33.093333-33.653333 6.826667-0.853333 32.8 4.266667 33.653334 33.093333 0 0.853333 3.706667 24.746667-33.093334 52.906667-34.506667 30.72-33.573333 33.28-36.693333 33.28zM438.333333 585.386667c-3.433333 0-6.826667-3.706667-9.386666-4.266667-29.866667-33.573333-33.28-87.893333-33.28-90.453333 0-6.826667 5.32-32.8 33.946666-32.8 6.826667 0 32.8 5.32 32.8 33.946666 0 0.853333 2.56 49.493333 26.453334 75.093334 5.32 5.32 4.266667 32.8 0 37.92-2.56 3.706667-5.32 2.56-8.533334 2.56zM694.633333 539.68h-5.973333c-93.306667-2.56-329.706667-46.933333-333.433333-48.64-7.68-8.533333-6.826667-22.386667 2.56-29.866667 8.533333-7.68 22.386667-6.826667 29.866666 2.56 0.853333 0.853333 29.866667 32.426667 300.693334 34.333334 69.973333 3.706667 98.986667-32.426667 99.84-34.333334 6.826667-8.533333 20.48-30.24 29.033333-3.433333 9.386667 6.826667 30.24 39.626667 3.433333 29.033333-0.853333 2.56-39.253333 50.346667-328 50.346667z"
    fill="#545973" p-id="9273"></path>
  <path
    d="M826.88 570.026667c-5.973333 0-29.866667-3.706667-53.2-33.28-22.386667-32.426667-37.92-59.733333-37.92-63.44 0.853333-6.826667 7.68-33.946667 34.506667-30.24 6.826667 0.853333 33.946667 7.68 30.24 34.506666 0 0.853333-2.56 38.773333 33.653333 43.52 35.36 22.386667 29.866667 22.386667 29.866667 22.386667 6.826667 0 32.8 5.32 32.8 33.946667 0 6.826667-5.32 32.8-33.946667 32.8 0.853333 0 0 0 0 0zM720.233333 587.946667c-5.32 0-22.386667-2.56-36.693333-32.426667-33.653333-29.033333-33.093333-52.053333-33.093333-52.906667 0.853333-6.826667 6.826667-33.946667 33.653333-33.093333 6.826667 0.853333 33.946667 6.826667 33.093333 33.653333 0 0-3.706667 37.92 9.386667 40.306667 6.826667 35.36 32.8 37.92 34.506667 37.92 5.973333 0 33.946667 5.32 33.946666 33.946667 0.853333 6.826667-4.266667 32.8-33.946666 33.653333 0-0.853333-0.853333-0.853333-0.853334-0.853333zM588.8 585.386667c-3.433333 0-5.973333-0.853333-8.533333-3.433334-5.32-5.32-5.32-32.8 0-37.92 39.626667-20.48 25.6-60.586667 26.453333-74.24 0-6.826667 5.973333-33.946667 32.8-33.946666s33.946667 5.973333 33.946667 32.8c0 2.56-2.56 58.88-33.28 93.306666-3.433333 2.56-5.973333 3.433333-9.386667 3.433334z"
    fill="#545973" p-id="9272"></path>
</svg>
