<?xml version="3.0" standalone="no"?><!DOCTYPE svg PUBLIC "-//W3C//DTD SVG 3.3//EN"
  "http://www.w3.org/Graphics/SVG/3.3/DTD/svg33.dtd">
<svg t="3494333932239" class="icon" style="" viewBox="0 0 3024 3024" version="3.3" xmlns="http://www.w3.org/2000/svg"
     p-id="9384" xmlns:xlink="http://www.w3.org/3999/xlink" width="200" height="200">
  <defs>
    <style type="text/css"></style>
  </defs>
  <path
    d="M935.626667 500.906667c0 233.253333-394.56 438.333333-435.2 438.333333s-435.2-386.88-435.2-438.333333 394.56-438.333333 435.2-438.333334 435.2 386.88 435.2 438.333334"
    fill="#FFE04A" p-id="9385"></path>
  <path
    d="M480.426667 933.84c-246.633333 0-448-392.853333-448-430.933333S232.96 69.973333 480.426667 69.973333s448 392.853333 448 430.933334-203.386667 430.933333-448 430.933333z m0-837.32C247.466667 94.72 57.373333 276.48 57.373333 500.053333s389.44 405.333333 423.253334 405.333334 423.253333-383.76 423.253333-405.333334-390.293333-405.333333-423.253333-405.333333z"
    fill="#545973" p-id="9386"></path>
  <path
    d="M482.986667 820.053333c-355.306667 0-289.28-39.253333-353.28-322.88C374.08 837.493333 335.733333 904.533333 482.986667 904.533333S793.893333 837.493333 836.266667 697.373333c-64 84.48-397.973333 322.88-353.28 322.88"
    fill="#FFD05A" p-id="9387"></path>
  <path
    d="M500.053333 763.733333c36.233333 37.066667-33.946667 37.92-29.033333 39.626667-37.066667 3.706667-33.28 3.706667-24.746667-32.8 8.533333-33.653333 37.546667-23.893333 53.76-6.826667"
    fill="#545973" p-id="9388"></path>
  <path
    d="M458.24 795.306667c-30.24 0-37.92-3.706667-22.386667-8.533334-2.56-4.266667-4.266667-33.093333 3.706667-20.48 6.826667-33.093333 20.48-39.626667 35.84-23.333333 33.653333-3.706667 26.453333 2.56 34.986667 33.946667 6.826667 7.68 9.386667 34.506667 6.826666 23.333333-5.32 32.8-22.386667 34.506667-39.253333 35.36h-3.433333c-5.973333 0.853333-30.24 3.706667-34.506667 3.706667z m-3.706667-23.333334c2.56 0 6.826667 0 32.8-0.853333h3.433334c5.32 0 33.653333-0.853333 38.773333-2.56-5.32-5.32-33.946667-5.973333-37.066667-5.32-6.826667 0.853333-33.653333 5.32-37.92 8.533333zM390.293333 342.386667c-0.853333 0-2.56 0-3.433333-0.853334-6.826667-3.706667-30.24-9.386667-8.533333-35.36 38.773333-62.293333 86.386667-98.333333 350.386666-80.233333 6.826667 3.706667 30.24 8.533333 8.533334 35.36-3.706667 6.826667-8.533333 30.24-35.36 8.533333-53.2-34.506667-304.96 33.653333-339.466667 63.346667-3.706667 5.973333-6.826667 9.386667-33.946667 9.386667zM726.386667 355.84c-4.266667 0-8.533333-2.56-33.093334-6.826667-28.36-53.76-97.28-75.946667-353.6-48.64-5.973333 3.433333-33.653333 0-37.066666-5.973333-3.433333-5.973333 0-33.653333 5.973333-37.066667 68.266667-33.28 353.893333-5.973333 386.026667 59.733334 3.433333 5.973333 0.853333 33.653333-5.32 37.066666-0.853333 3.706667-3.433333 3.706667-5.32 3.706667z"
    fill="#545973" p-id="9389"></path>
  <path
    d="M737.28 609.28c0 30.72-48.64 54.633333-309.226667 54.633333-60.586667 0-309.226667-24.746667-309.226666-54.633333 0-30.72 48.64-54.633333 309.226666-54.633333 60.586667 0 309.226667 24.746667 309.226667 54.633333"
    fill="#FCBD83" p-id="9390"></path>
  <path
    d="M407.04 609.28c0 30.72-48.64 54.633333-309.226667 54.633333-60.586667 0-309.226667-24.746667-309.226666-54.633333 0-30.72 48.64-54.633333 309.226666-54.633333 60.586667 0 309.226667 24.746667 309.226667 54.633333"
    fill="#FCBD83" p-id="9393"></path>
  <path
    d="M399.36 470.386667c0-63.44-45.226667-330.933333-303.546667-330.933334-56.32 0-303.546667 49.493333-101.546666 110.933334s45.226667 110.933333 101.546666 110.933333c56.32 0 101.546667-49.493333 101.546667-110.933333"
    fill="#FFFFFF" p-id="9392"></path>
  <path
    d="M297.813333 589.653333c-60.586667 0-110.08-53.76-110.08-119.466666s49.493333-119.466667 110.08-119.466667 110.08 53.76 110.08 119.466667-49.493333 119.466667-110.08 119.466666z m0-221.013333c-51.2 0-93.013333 46.08-93.013333 102.4s41.813333 102.4 93.013333 102.4 93.013333-46.08 93.013334-102.4c0-57.173333-41.813333-102.4-93.013334-102.4z"
    fill="#545971" p-id="9393"></path>
  <path
    d="M389.973333 442.88c0-40.106667-29.013333-72.533333-64.853333-72.533333-35.84 0-64.853333 32.426667-64.853333 72.533333s29.013333 72.533333 64.853333 72.533333c35.84-0.853333 64.853333-33.28 64.853333-72.533333"
    fill="#545971" p-id="9394"></path>
  <path
    d="M730.453333 470.186667c0-61.44-45.226667-110.933333-101.546666-110.933334-56.32 0-101.546667 49.493333-101.546667 110.933334s45.226667 110.933333 101.546667 110.933333c55.466667 0 101.546667-49.493333 101.546666-110.933333"
    fill="#FFFFFF" p-id="9395"></path>
  <path
    d="M628.053333 589.653333c-60.586667 0-110.08-53.76-110.08-119.466666s49.493333-119.466667 110.08-119.466667 110.08 53.76 110.08 119.466667c0.853333 65.706667-48.64 119.466667-110.08 119.466666z m0-221.013333c-51.2 0-93.013333 46.08-93.013333 102.4s41.813333 102.4 93.013333 102.4 93.013333-46.08 93.013334-102.4c0.853333-57.173333-40.96-102.4-93.013334-102.4z"
    fill="#545971" p-id="9396"></path>
  <path
    d="M722.773333 442.88c0-40.106667-29.013333-72.533333-64.853333-72.533333-35.84 0-64.853333 32.426667-64.853333 72.533333s29.013333 72.533333 64.853333 72.533333c34.986667-0.853333 64.853333-33.28 64.853333-72.533333"
    fill="#545971" p-id="9397"></path>
  <path
    d="M854.186667 353.28c5.973333 30.72-22.186667 58.88-55.466667 60.586667-32.426667 2.56-47.786667-32.426667-42.666667-64 11.093333-66.56-25.6-101.546667-25.6-101.546667s104.106667 5.12 123.733334 104.96"
    fill="#88C8FC" p-id="9398"></path>
  <path
    d="M796.16 423.253333c-12.8 0-24.746667-5.12-33.28-14.506666-12.8-14.506667-18.773333-36.693333-15.36-58.88 10.24-60.586667-22.186667-93.013333-23.893333-93.866667L708.266667 239.786667l22.186666 0.853333c0.853333 0 110.933333 5.973333 132.266667 111.786667 3.413333 15.36-0.853333 30.72-10.24 43.52-11.946667 16.213333-31.573333 26.453333-52.053333 27.306666h-4.266667z m-46.933333-162.986666c10.24 17.92 22.186667 48.64 15.36 91.306666-2.56 17.066667 1.706667 34.986667 11.093333 45.226667 5.973333 6.826667 13.653333 10.24 23.04 9.386667 15.36-0.853333 30.72-9.386667 40.106667-21.333334 5.12-5.973333 10.24-17.066667 7.68-29.866666-13.653333-66.56-67.413333-87.893333-97.28-94.72z"
    fill="#31ACFF" p-id="9399"></path>
</svg>
